<mxfile host="app.diagrams.net" modified="2024-01-17T11:24:26.871Z" agent="Mozilla/5.0 (Macintosh; Intel Mac OS X 10_15_7) AppleWebKit/537.36 (KHTML, like Gecko) Chrome/116.0.0.0 Whale/3.22.205.18 Safari/537.36" etag="vixv_9hxuTgbkYk58BY5" version="22.1.17" type="github">
  <diagram name="페이지-1" id="Puny5hpR6rx9WjVPYAtV">
    <mxGraphModel dx="1548" dy="997" grid="1" gridSize="10" guides="1" tooltips="1" connect="1" arrows="1" fold="1" page="1" pageScale="1" pageWidth="1169" pageHeight="827" math="0" shadow="0">
      <root>
        <mxCell id="0" />
        <mxCell id="1" parent="0" />
        <mxCell id="eOYHDKCbo82nfiAJU0Y3-7" style="edgeStyle=orthogonalEdgeStyle;rounded=0;orthogonalLoop=1;jettySize=auto;html=1;strokeWidth=2;" edge="1" parent="1" source="eOYHDKCbo82nfiAJU0Y3-1" target="eOYHDKCbo82nfiAJU0Y3-3">
          <mxGeometry relative="1" as="geometry" />
        </mxCell>
        <mxCell id="eOYHDKCbo82nfiAJU0Y3-8" style="edgeStyle=orthogonalEdgeStyle;rounded=0;orthogonalLoop=1;jettySize=auto;html=1;entryX=0.5;entryY=1;entryDx=0;entryDy=0;strokeWidth=2;" edge="1" parent="1" source="eOYHDKCbo82nfiAJU0Y3-1" target="eOYHDKCbo82nfiAJU0Y3-4">
          <mxGeometry relative="1" as="geometry" />
        </mxCell>
        <mxCell id="eOYHDKCbo82nfiAJU0Y3-9" style="edgeStyle=orthogonalEdgeStyle;rounded=0;orthogonalLoop=1;jettySize=auto;html=1;strokeWidth=2;" edge="1" parent="1" source="eOYHDKCbo82nfiAJU0Y3-1" target="eOYHDKCbo82nfiAJU0Y3-5">
          <mxGeometry relative="1" as="geometry" />
        </mxCell>
        <mxCell id="eOYHDKCbo82nfiAJU0Y3-1" value="&lt;font style=&quot;font-size: 16px;&quot;&gt;Service&lt;/font&gt;" style="rounded=1;whiteSpace=wrap;html=1;fillColor=#dae8fc;strokeColor=#6c8ebf;" vertex="1" parent="1">
          <mxGeometry x="520" y="240" width="120" height="60" as="geometry" />
        </mxCell>
        <mxCell id="eOYHDKCbo82nfiAJU0Y3-6" style="edgeStyle=orthogonalEdgeStyle;rounded=0;orthogonalLoop=1;jettySize=auto;html=1;entryX=0;entryY=0.5;entryDx=0;entryDy=0;strokeWidth=2;" edge="1" parent="1" source="eOYHDKCbo82nfiAJU0Y3-2" target="eOYHDKCbo82nfiAJU0Y3-1">
          <mxGeometry relative="1" as="geometry" />
        </mxCell>
        <mxCell id="eOYHDKCbo82nfiAJU0Y3-2" value="&lt;font style=&quot;font-size: 16px;&quot;&gt;Inbound&lt;br&gt;Kafka Topic&lt;br&gt;&lt;/font&gt;" style="rounded=1;whiteSpace=wrap;html=1;fillColor=#f8cecc;strokeColor=#b85450;" vertex="1" parent="1">
          <mxGeometry x="320" y="240" width="120" height="60" as="geometry" />
        </mxCell>
        <mxCell id="eOYHDKCbo82nfiAJU0Y3-3" value="&lt;font style=&quot;font-size: 16px;&quot;&gt;Outbound&lt;br&gt;Kafka Topic&lt;br&gt;&lt;/font&gt;" style="rounded=1;whiteSpace=wrap;html=1;fillColor=#fff2cc;strokeColor=#d6b656;" vertex="1" parent="1">
          <mxGeometry x="720" y="240" width="120" height="60" as="geometry" />
        </mxCell>
        <mxCell id="eOYHDKCbo82nfiAJU0Y3-4" value="&lt;font style=&quot;font-size: 16px;&quot;&gt;Database&lt;br&gt;&lt;/font&gt;" style="rounded=1;whiteSpace=wrap;html=1;fillColor=#ffe6cc;strokeColor=#d79b00;" vertex="1" parent="1">
          <mxGeometry x="520" y="100" width="120" height="60" as="geometry" />
        </mxCell>
        <mxCell id="eOYHDKCbo82nfiAJU0Y3-5" value="&lt;font style=&quot;font-size: 16px;&quot;&gt;Third-party&lt;br&gt;Service&lt;br&gt;&lt;/font&gt;" style="rounded=1;whiteSpace=wrap;html=1;fillColor=#d5e8d4;strokeColor=#82b366;" vertex="1" parent="1">
          <mxGeometry x="517.5" y="360" width="125" height="60" as="geometry" />
        </mxCell>
        <mxCell id="eOYHDKCbo82nfiAJU0Y3-10" value="&lt;font style=&quot;font-size: 15px;&quot;&gt;1&lt;/font&gt;" style="ellipse;whiteSpace=wrap;html=1;aspect=fixed;fillColor=#f5f5f5;strokeColor=#666666;fontColor=#333333;" vertex="1" parent="1">
          <mxGeometry x="460" y="230" width="30" height="30" as="geometry" />
        </mxCell>
        <mxCell id="eOYHDKCbo82nfiAJU0Y3-11" value="&lt;font style=&quot;font-size: 15px;&quot;&gt;2&lt;/font&gt;" style="ellipse;whiteSpace=wrap;html=1;aspect=fixed;fillColor=#f5f5f5;fontColor=#333333;strokeColor=#666666;" vertex="1" parent="1">
          <mxGeometry x="540" y="310" width="30" height="30" as="geometry" />
        </mxCell>
        <mxCell id="eOYHDKCbo82nfiAJU0Y3-12" value="&lt;font style=&quot;font-size: 15px;&quot;&gt;3&lt;/font&gt;" style="ellipse;whiteSpace=wrap;html=1;aspect=fixed;fillColor=#f5f5f5;fontColor=#333333;strokeColor=#666666;" vertex="1" parent="1">
          <mxGeometry x="540" y="190" width="30" height="30" as="geometry" />
        </mxCell>
        <mxCell id="eOYHDKCbo82nfiAJU0Y3-13" value="&lt;font style=&quot;font-size: 15px;&quot;&gt;4&lt;/font&gt;" style="ellipse;whiteSpace=wrap;html=1;aspect=fixed;fillColor=#f5f5f5;fontColor=#333333;strokeColor=#666666;" vertex="1" parent="1">
          <mxGeometry x="660" y="230" width="30" height="30" as="geometry" />
        </mxCell>
      </root>
    </mxGraphModel>
  </diagram>
</mxfile>
